<?xml version="1.0" encoding="UTF-8"?>
<svg id="Layer_1" xmlns="http://www.w3.org/2000/svg" version="1.1" viewBox="0 0 792 396">
  <!-- Generator: Adobe Illustrator 29.6.1, SVG Export Plug-In . SVG Version: 2.1.1 Build 9)  -->
  <defs>
    <style>
      .st0 {
        fill: #7c4dff;
      }
    </style>
  </defs>
  <path class="st0" d="M99.06,260.62c-4.72,0-7.08-2.36-7.08-7.08v-113.42c0-4.72,2.36-7.08,7.08-7.08h44.76c11.41,0,20.11,3.01,26.11,9.04,5.99,6.02,8.99,14.74,8.99,26.16v5.74c0,11.41-3,20.12-8.99,26.11-5.99,5.99-14.7,8.99-26.11,8.99h-37.78v44.47c0,4.72-2.33,7.08-6.98,7.08ZM106.04,195.02h37.78c7.52,0,12.91-1.63,16.16-4.88,3.25-3.25,4.88-8.64,4.88-16.16v-5.74c0-7.52-1.63-12.93-4.88-16.21-3.25-3.28-8.64-4.93-16.16-4.93h-37.78v47.91Z"/>
  <path class="st0" d="M397.32,260.62c-11.03,0-19.49-2.31-25.39-6.93-5.9-4.62-9.42-11.81-10.57-21.57-.19-2.42.33-4.26,1.58-5.5s3.01-1.87,5.31-1.87,4,.57,5.12,1.72c1.11,1.15,1.83,2.87,2.15,5.16.77,5.61,2.79,9.48,6.07,11.62,3.28,2.14,8.53,3.2,15.73,3.2h27.54c8.54,0,14.39-1.58,17.55-4.73,3.16-3.16,4.73-8.91,4.73-17.26s-1.61-14.33-4.83-17.55c-3.22-3.22-9.04-4.83-17.45-4.83h-24.48c-11.8,0-20.51-2.84-26.16-8.51-5.64-5.67-8.46-14.38-8.46-26.11s2.79-20.4,8.37-26.01c5.58-5.61,14.26-8.42,26.06-8.42h24.1c10.33,0,18.28,2.18,23.86,6.55,5.58,4.37,8.94,11.11,10.09,20.23.25,2.36-.24,4.16-1.48,5.4-1.24,1.24-3.04,1.87-5.4,1.87-2.23,0-3.92-.59-5.07-1.77-1.15-1.18-1.85-2.88-2.1-5.12-.76-4.91-2.66-8.32-5.69-10.23-3.03-1.91-7.76-2.87-14.2-2.87h-24.1c-7.91,0-13.28,1.45-16.11,4.35-2.84,2.9-4.26,8.24-4.26,16.02s1.45,13.15,4.35,16.11c2.9,2.96,8.3,4.45,16.21,4.45h24.48c12.37,0,21.52,2.96,27.45,8.89,5.93,5.93,8.89,15.11,8.89,27.54s-2.96,21.49-8.89,27.35c-5.93,5.87-15.08,8.8-27.45,8.8h-27.54Z"/>
  <path class="st0" d="M485.98,259.95c-4.46-1.78-5.8-4.88-4.02-9.28l46.19-112.08c1.59-3.7,4.21-5.55,7.84-5.55h.48c3.63.19,6.12,2.04,7.46,5.55l46.67,112.08c1.78,4.4.51,7.49-3.83,9.28-4.4,1.72-7.46.45-9.18-3.83l-11.19-26.68h-60.54l-10.81,26.68c-1.79,4.34-4.82,5.61-9.09,3.83ZM511.42,215.29h49.25l-24.96-59.96-24.29,59.96Z"/>
  <path class="st0" d="M694.77,261c-1.85,1.15-3.62,1.5-5.31,1.05-1.69-.45-3.11-1.59-4.26-3.44l-30.22-49.54h-29.55v44.47c0,4.72-2.33,7.08-6.98,7.08s-7.08-2.36-7.08-7.08v-113.42c0-4.72,2.36-7.08,7.08-7.08h44.76c11.41,0,20.12,3.01,26.11,9.04,5.99,6.02,8.99,14.74,8.99,26.16v5.74c0,9.95-2.31,17.85-6.93,23.72-4.62,5.87-11.33,9.47-20.13,10.81l26.11,42.84c2.23,3.95,1.37,7.17-2.58,9.66ZM625.44,195.02h37.78c7.52,0,12.91-1.63,16.16-4.88,3.25-3.25,4.88-8.64,4.88-16.16v-5.74c0-7.52-1.63-12.93-4.88-16.21-3.25-3.28-8.64-4.93-16.16-4.93h-37.78v47.91Z"/>
  <g>
    <path class="st0" d="M326.51,260.21h-112.78c-5.35,0-10.14-2.77-12.82-7.4-2.68-4.63-2.68-10.17,0-14.8l56.61-98.04c2.76-4.43,7.45-7.03,12.59-7.03s9.83,2.6,12.55,6.95l.23.37,56.44,97.75c2.67,4.63,2.68,10.17,0,14.8-2.67,4.63-7.47,7.4-12.82,7.4ZM270.12,143.3c-.74,0-2.59.2-3.76,2.07l-.13.22-56.35,97.6c-1.16,2-.39,3.77,0,4.44.39.67,1.53,2.22,3.84,2.22h112.78c2.31,0,3.46-1.55,3.84-2.22.39-.67,1.16-2.44,0-4.44l-56.49-97.84c-1.17-1.85-3-2.05-3.74-2.05Z"/>
    <path class="st0" d="M273.96,170.68c-1.71-2.96-5.98-2.96-7.69,0l-34.6,59.94c-1.71,2.96.43,6.66,3.84,6.66h69.21c3.42,0,5.55-3.7,3.84-6.66l-34.6-59.94Z"/>
  </g>
</svg>